<svg data-v-423bf9ae="" xmlns="http://www.w3.org/2000/svg" viewBox="0 0 264 90" class="iconLeft"><!----><!----><!----><g data-v-423bf9ae="" id="f29a2b68-f844-4382-ae65-9d3fb0a08f5a" fill="#3CD3A0" transform="matrix(4.535147549208299,0,0,4.535147549208299,100.16162697756558,-8.356009834090955)"><path d="M7.31 7.74L7.46 7.90Q6.92 8.61 6.10 9.07Q5.29 9.52 4.42 9.52L4.42 9.52Q4.14 9.87 4.02 10.18Q3.89 10.49 3.89 10.91L3.89 10.91L3.89 15.47Q3.89 16.56 3.56 17.19Q3.22 17.81 2.48 18.38L2.48 18.38L2.18 18.10Q2.39 17.86 2.50 17.49Q2.60 17.11 2.60 16.73L2.60 16.73L2.60 11.72Q2.60 11.09 2.94 10.51Q3.28 9.94 3.79 9.52L3.79 9.52L1.86 9.51Q1.33 9.51 0.95 9.70Q0.57 9.88 0.21 10.29L0.21 10.29L-0.06 10.08Q0.64 9.23 1.42 8.76Q2.20 8.30 3.01 8.30L3.01 8.30L4.17 8.30Q5.18 8.30 6.05 8.20Q6.92 8.09 7.31 7.74L7.31 7.74ZM9.98 11.09Q10.67 11.09 11.28 11.38Q11.89 11.68 12.17 12.28L12.17 12.28L11.16 12.82Q10.93 12.50 10.54 12.24Q10.15 11.98 9.70 11.98L9.70 11.98Q8.99 11.98 8.46 12.36Q7.92 12.73 7.64 13.36Q7.36 13.99 7.36 14.76L7.36 14.76Q7.36 15.86 7.74 16.55Q8.12 17.25 8.93 17.25L8.93 17.25Q10.08 17.25 10.51 16.32Q10.95 15.40 10.95 14.31L10.95 14.31L10.95 13.68L12.18 13.16L12.18 16.84Q12.18 17.02 12.28 17.19Q12.38 17.36 12.57 17.36L12.57 17.36Q12.98 17.36 13.31 16.80L13.31 16.80L13.52 17.02Q13.36 17.50 12.94 17.83Q12.52 18.16 12.10 18.16L12.10 18.16Q11.49 18.16 11.21 17.71Q10.92 17.26 10.92 16.52L10.92 16.52L10.89 16.52Q10.54 17.26 9.95 17.76Q9.35 18.26 8.69 18.26L8.69 18.26Q7.50 18.26 6.89 17.44Q6.29 16.62 6.29 15.25L6.29 15.25Q6.29 14.15 6.78 13.20Q7.27 12.24 8.11 11.66Q8.96 11.09 9.98 11.09L9.98 11.09ZM16.20 5.15L16.20 16.91Q16.20 17.08 16.30 17.23Q16.39 17.39 16.63 17.39L16.63 17.39Q16.83 17.39 17.05 17.21Q17.26 17.04 17.37 16.84L17.37 16.84L17.61 17.05Q17.37 17.51 16.95 17.84Q16.53 18.16 16.11 18.16L16.11 18.16Q14.94 18.16 14.94 16.74L14.94 16.74L14.94 5.68L16.20 5.15ZM22.22 11.09Q22.90 11.09 23.51 11.38Q24.12 11.68 24.40 12.28L24.40 12.28L23.39 12.82Q23.17 12.50 22.78 12.24Q22.39 11.98 21.94 11.98L21.94 11.98Q21.22 11.98 20.69 12.36Q20.16 12.73 19.88 13.36Q19.60 13.99 19.60 14.76L19.60 14.76Q19.60 15.86 19.98 16.55Q20.36 17.25 21.17 17.25L21.17 17.25Q22.32 17.25 22.75 16.32Q23.18 15.40 23.18 14.31L23.18 14.31L23.18 13.68L24.42 13.16L24.42 16.84Q24.42 17.02 24.51 17.19Q24.61 17.36 24.81 17.36L24.81 17.36Q25.21 17.36 25.55 16.80L25.55 16.80L25.76 17.02Q25.59 17.50 25.17 17.83Q24.75 18.16 24.33 18.16L24.33 18.16Q23.73 18.16 23.44 17.71Q23.16 17.26 23.16 16.52L23.16 16.52L23.13 16.52Q22.78 17.26 22.18 17.76Q21.59 18.26 20.93 18.26L20.93 18.26Q19.74 18.26 19.13 17.44Q18.52 16.62 18.52 15.25L18.52 15.25Q18.52 14.15 19.01 13.20Q19.50 12.24 20.35 11.66Q21.20 11.09 22.22 11.09L22.22 11.09ZM29.75 12.80Q29.12 13.45 28.66 14.51Q28.21 15.57 28.21 16.44L28.21 16.44Q28.21 17.19 28.54 17.70Q28.87 18.21 29.60 18.21L29.60 18.21Q30.18 18.21 30.72 17.91Q31.26 17.60 31.64 17.11L31.64 17.11L31.49 16.90Q31.05 17.19 30.63 17.19L30.63 17.19Q29.97 17.19 29.64 16.73Q29.30 16.27 29.30 15.61L29.30 15.61Q29.30 14.55 29.85 13.59Q30.39 12.64 31.23 11.75L31.23 11.75L31.01 11.55Q30.03 12.17 29.22 12.17L29.22 12.17Q28.74 12.17 28.35 11.74Q27.96 11.31 27.75 10.79L27.75 10.79L26.61 12.07Q26.71 12.35 27.15 12.71L27.15 12.71L26.21 14.67L26.73 14.91L27.64 12.91Q27.87 13.01 28.03 13.03Q28.18 13.06 28.45 13.06L28.45 13.06Q29.13 13.06 29.71 12.75L29.71 12.75L29.75 12.80ZM34.61 6.41L34.13 9.67L33.67 9.84L33.10 6.93L34.61 6.41ZM34.59 11.14L34.59 16.91Q34.59 17.12 34.70 17.26Q34.80 17.39 35 17.39L35 17.39Q35.15 17.39 35.34 17.25Q35.53 17.11 35.73 16.84L35.73 16.84L35.95 17.05Q35.63 17.65 35.17 17.91Q34.72 18.16 34.34 18.16L34.34 18.16Q33.84 18.16 33.56 17.84Q33.29 17.51 33.29 16.74L33.29 16.74L33.29 11.65L34.59 11.14Z"></path></g><!----><g data-v-423bf9ae="" id="3ebef057-756d-41ea-aeed-67e7a4f1814f" transform="matrix(1.4516129032258065,0,0,1.4516129032258065,-5.96888969790551,-1.4516129032258078)" stroke="none" fill="#3BD6A1"><path d="M19.271 39.349l12.228 7.059V32.291l-12.228-7.059zM32 17.302l-12.229 7.063 12.228 7.06 12.23-7.059zM32.499 46.409l12.23-7.06V25.233l-12.23 7.058zM28.346 7.625a3.316 3.316 0 003.313-3.313A3.318 3.318 0 0028.346 1a3.316 3.316 0 00-3.312 3.312 3.316 3.316 0 003.312 3.313zM32.609 3.823c.019.163.049.321.049.489 0 .175-.031.342-.052.511 14.327.241 25.911 11.964 25.911 26.348a.5.5 0 001 0c.001-14.935-12.03-27.105-26.908-27.348zM35.648 56.376A3.313 3.313 0 0035.65 63c1.825 0 3.311-1.486 3.311-3.313s-1.486-3.311-3.313-3.311zM5.482 32.83a.5.5 0 00-1 0c0 14.934 12.031 27.104 26.909 27.346-.019-.162-.049-.321-.049-.488 0-.175.031-.342.052-.512C17.065 58.935 5.482 47.213 5.482 32.83z"></path></g><!----></svg>