<svg xmlns="http://www.w3.org/2000/svg" viewBox="0 0 64 64" class="iconLeft">
  <g fill="#3CD3A0" transform="matrix(1,0,0,1,0,0)">
    <path d=""></path>
  </g>
  <g transform="matrix(1.4516129032258065,0,0,1.4516129032258065,-5.96888969790551,-1.4516129032258078)" stroke="none" fill="#3BD6A1">
    <path d="M19.271 39.349l12.228 7.059V32.291l-12.228-7.059zM32 17.302l-12.229 7.063 12.228 7.06 12.23-7.059zM32.499 46.409l12.23-7.06V25.233l-12.23 7.058zM28.346 7.625a3.316 3.316 0 003.313-3.313A3.318 3.318 0 0028.346 1a3.316 3.316 0 00-3.312 3.312 3.316 3.316 0 003.312 3.313zM32.609 3.823c.019.163.049.321.049.489 0 .175-.031.342-.052.511 14.327.241 25.911 11.964 25.911 26.348a.5.5 0 001 0c.001-14.935-12.03-27.105-26.908-27.348zM35.648 56.376A3.313 3.313 0 0035.65 63c1.825 0 3.311-1.486 3.311-3.313s-1.486-3.311-3.313-3.311zM5.482 32.83a.5.5 0 00-1 0c0 14.934 12.031 27.104 26.909 27.346-.019-.162-.049-.321-.049-.488 0-.175.031-.342.052-.512C17.065 58.935 5.482 47.213 5.482 32.83z"></path>
  </g>
</svg>
